<svg xmlns="http://www.w3.org/2000/svg" aria-hidden="true">
  <symbol id="aura-mark" viewBox="0 0 24 24"><path d="M4 15c-3-7 5-12 12-9 4 2 5 5 4 8M20 9c3 7-5 11-12 9-4-1-5-4-4-7"/><circle cx="12" cy="12" r="2" fill="currentColor" stroke="none"/></symbol>
  <symbol id="command-center" viewBox="0 0 24 24"><rect x="3" y="3" width="18" height="18" rx="4"/><path d="M7 15l3-3 3 2 4-5"/></symbol>
  <symbol id="employees" viewBox="0 0 24 24"><circle cx="9" cy="8" r="3"/><circle cx="17" cy="9" r="2"/><path d="M3 20c0-4 2-6 6-6s6 2 6 6M15 15c4 0 6 2 6 5"/></symbol>
  <symbol id="missions" viewBox="0 0 24 24"><circle cx="12" cy="12" r="8"/><circle cx="12" cy="12" r="3"/><path d="M18 6l3-3M18 3h3v3"/></symbol>
  <symbol id="workflows" viewBox="0 0 24 24"><rect x="3" y="4" width="6" height="5" rx="1"/><rect x="15" y="15" width="6" height="5" rx="1"/><path d="M9 6h5a4 4 0 014 4v5M15 18H9a4 4 0 01-4-4V9"/></symbol>
  <symbol id="decisions" viewBox="0 0 24 24"><path d="M5 3h14v18H5zM8 8h8M8 12h5M8 16h7"/></symbol>
  <symbol id="research" viewBox="0 0 24 24"><circle cx="10" cy="10" r="6"/><path d="M14.5 14.5L21 21M8 10h4M10 8v4"/></symbol>
  <symbol id="intelligence" viewBox="0 0 24 24"><path d="M4 18V9l8-5 8 5v9l-8 3zM8 15l3-4 2 2 3-5"/></symbol>
  <symbol id="marketing" viewBox="0 0 24 24"><path d="M4 13h4l9 5V6l-9 5H4zM8 13v6H5v-6M20 9v6"/></symbol>
  <symbol id="production" viewBox="0 0 24 24"><rect x="3" y="5" width="18" height="14" rx="3"/><path d="M10 9l6 3-6 3z"/></symbol>
  <symbol id="creative-quality" viewBox="0 0 24 24"><path d="M12 3l3 6 6 1-4.5 4.5 1 6.5-5.5-3-5.5 3 1-6.5L3 10l6-1z"/></symbol>
  <symbol id="renders" viewBox="0 0 24 24"><path d="M4 4h16v16H4zM4 9h16M9 4v16"/></symbol>
  <symbol id="distribution" viewBox="0 0 24 24"><circle cx="6" cy="12" r="2"/><circle cx="18" cy="6" r="2"/><circle cx="18" cy="18" r="2"/><path d="M8 11l8-4M8 13l8 4"/></symbol>
  <symbol id="analytics" viewBox="0 0 24 24"><path d="M4 20V4M4 20h17M8 17v-5M13 17V7M18 17v-8"/></symbol>
  <symbol id="learning" viewBox="0 0 24 24"><path d="M3 6l9-3 9 3-9 4zM6 9v7c3 3 9 3 12 0V9M21 6v8"/></symbol>
  <symbol id="providers" viewBox="0 0 24 24"><path d="M8 7V3M16 7V3M6 7h12v5a6 6 0 01-6 6 6 6 0 01-6-6zM12 18v3"/></symbol>
  <symbol id="system" viewBox="0 0 24 24"><circle cx="12" cy="12" r="3"/><path d="M12 2v3M12 19v3M2 12h3M19 12h3M5 5l2 2M17 17l2 2M19 5l-2 2M7 17l-2 2"/></symbol>
  <symbol id="founder-approval" viewBox="0 0 24 24"><path d="M12 3l8 4v5c0 5-3 8-8 9-5-1-8-4-8-9V7zM8 12l3 3 5-6"/></symbol>
  <symbol id="success" viewBox="0 0 24 24"><circle cx="12" cy="12" r="9"/><path d="M8 12l3 3 5-6"/></symbol>
  <symbol id="warning" viewBox="0 0 24 24"><path d="M12 3l10 18H2zM12 9v5M12 18h.01"/></symbol>
  <symbol id="blocked" viewBox="0 0 24 24"><circle cx="12" cy="12" r="9"/><path d="M6 6l12 12"/></symbol>
  <symbol id="idle" viewBox="0 0 24 24"><circle cx="12" cy="12" r="9"/><path d="M12 7v5l3 2"/></symbol>
  <symbol id="working" viewBox="0 0 24 24"><path d="M12 3v3M12 18v3M3 12h3M18 12h3M5.5 5.5l2 2M16.5 16.5l2 2M18.5 5.5l-2 2M7.5 16.5l-2 2"/><circle cx="12" cy="12" r="3"/></symbol>
  <symbol id="completed" viewBox="0 0 24 24"><path d="M4 12l5 5L20 6"/></symbol>
  <symbol id="brand" viewBox="0 0 24 24"><path d="M12 3c5 0 9 3 9 7 0 3-2 5-5 5h-2l-2 5-2-5H8c-3 0-5-2-5-5 0-4 4-7 9-7z"/></symbol>
  <style>symbol{fill:none;stroke:currentColor;stroke-width:1.75;stroke-linecap:round;stroke-linejoin:round}</style>
</svg>
